HIERARCHY
ROOT hip
{
  OFFSET 0.00112043 5.09927 -9.65472
  CHANNELS 6 Xposition Yposition Zposition Zrotation Xrotation Yrotation
  JOINT abdomen
  {
    OFFSET 0 -1.186 -1.5018
    CHANNELS 3 Zrotation Xrotation Yrotation
    JOINT abdomen2
    {
      OFFSET 0 9.964 0.2134
      CHANNELS 3 Zrotation Xrotation Yrotation
      JOINT chest
      {
        OFFSET 0 13.134 -3.2573
        CHANNELS 3 Zrotation Xrotation Yrotation
        JOINT neck
        {
          OFFSET 0 20.686 -1.6905
          CHANNELS 3 Zrotation Xrotation Yrotation
          JOINT head
          {
            OFFSET 0 7.238 -0.1237
            CHANNELS 3 Zrotation Xrotation Yrotation
            End Site
            {
              OFFSET 0 0 0
            }
          }
        }
        JOINT lCollar
        {
          OFFSET 1.7069 20.075 5.0056
          CHANNELS 3 Zrotation Xrotation Yrotation
          JOINT lShldr
          {
            OFFSET 13.6458 -0.047 -4.849
            CHANNELS 3 Zrotation Xrotation Yrotation
            JOINT lForeArm
            {
              OFFSET 28.3255 -0.9759 2.2888
              CHANNELS 3 Zrotation Xrotation Yrotation
              JOINT lHand
              {
                OFFSET 22.1583 -0.53 10.8316
                CHANNELS 3 Zrotation Xrotation Yrotation
                JOINT lThumb1
                {
                  OFFSET 0.786 0.112 2.5817
                  CHANNELS 3 Zrotation Xrotation Yrotation
                  JOINT lThumb2
                  {
                    OFFSET 0.3601 -0.878 4.2331
                    CHANNELS 3 Zrotation Xrotation Yrotation
                    JOINT lThumb2_End
                    {
                      OFFSET 1.8127 -1.216 2.2227
                      CHANNELS 3 Zrotation Xrotation Yrotation
                      End Site
                      {
                        OFFSET 0.0181 -0.0122 0.0222
                      }
                    }
                  }
                }
                JOINT lCarpal1
                {
                  OFFSET 0.9571 1.114 1.7695
                  CHANNELS 3 Zrotation Xrotation Yrotation
                  JOINT lIndex1
                  {
                    OFFSET 4.1246 0.487 4.1451
                    CHANNELS 3 Zrotation Xrotation Yrotation
                    JOINT lIndex2
                    {
                      OFFSET 3.4052 -1.454 2.7682
                      CHANNELS 3 Zrotation Xrotation Yrotation
                      JOINT lIndex2_End
                      {
                        OFFSET 1.4531 -1.795 1.2713
                        CHANNELS 3 Zrotation Xrotation Yrotation
                        End Site
                        {
                          OFFSET 0.0145 -0.0179 0.0127
                        }
                      }
                    }
                  }
                  JOINT lMid1
                  {
                    OFFSET 5.6954 0.21 2.1184
                    CHANNELS 3 Zrotation Xrotation Yrotation
                    JOINT lMid2
                    {
                      OFFSET 3.9766 -1.54 2.3863
                      CHANNELS 3 Zrotation Xrotation Yrotation
                      JOINT lMid2_End
                      {
                        OFFSET 1.4042 -1.926 1.125
                        CHANNELS 3 Zrotation Xrotation Yrotation
                        End Site
                        {
                          OFFSET 0.014 -0.0193 0.0113
                        }
                      }
                    }
                  }
                }
                JOINT lCarpal2
                {
                  OFFSET 2.0956 0.66 -0.3894
                  CHANNELS 3 Zrotation Xrotation Yrotation
                  JOINT lRing1
                  {
                    OFFSET 5.0395 -0.09 2.4971
                    CHANNELS 3 Zrotation Xrotation Yrotation
                    JOINT lRing2
                    {
                      OFFSET 3.7921 -1.552 1.4806
                      CHANNELS 3 Zrotation Xrotation Yrotation
                      JOINT lRing2_End
                      {
                        OFFSET 1.4655 -1.808 0.9609
                        CHANNELS 3 Zrotation Xrotation Yrotation
                        End Site
                        {
                          OFFSET 0.0147 -0.0181 0.0096
                        }
                      }
                    }
                  }
                  JOINT lPinky1
                  {
                    OFFSET 4.9141 -1.269 0.3591
                    CHANNELS 3 Zrotation Xrotation Yrotation
                    JOINT lPinky2
                    {
                      OFFSET 3.1477 -1.685 0.8462
                      CHANNELS 3 Zrotation Xrotation Yrotation
                      JOINT lPinky2_End
                      {
                        OFFSET 0.8055 -1.585 0.7955
                        CHANNELS 3 Zrotation Xrotation Yrotation
                        End Site
                        {
                          OFFSET 0.0081 -0.0158 0.008
                        }
                      }
                    }
                  }
                }
              }
            }
          }
        }
        JOINT rCollar
        {
          OFFSET -1.7069 20.075 5.0056
          CHANNELS 3 Zrotation Xrotation Yrotation
          JOINT rShldr
          {
            OFFSET -13.6458 -0.047 -4.849
            CHANNELS 3 Zrotation Xrotation Yrotation
            JOINT rForeArm
            {
              OFFSET -28.3255 -0.9759 2.2888
              CHANNELS 3 Zrotation Xrotation Yrotation
              JOINT rHand
              {
                OFFSET -22.1583 -0.53 10.8316
                CHANNELS 3 Zrotation Xrotation Yrotation
                JOINT rThumb1
                {
                  OFFSET -0.786 0.112 2.5817
                  CHANNELS 3 Zrotation Xrotation Yrotation
                  JOINT rThumb2
                  {
                    OFFSET -0.3601 -0.878 4.2331
                    CHANNELS 3 Zrotation Xrotation Yrotation
                    JOINT rThumb2_End
                    {
                      OFFSET -1.8127 -1.216 2.2227
                      CHANNELS 3 Zrotation Xrotation Yrotation
                      End Site
                      {
                        OFFSET -0.0181 -0.0122 0.0222
                      }
                    }
                  }
                }
                JOINT rCarpal1
                {
                  OFFSET -0.9571 1.114 1.7695
                  CHANNELS 3 Zrotation Xrotation Yrotation
                  JOINT rIndex1
                  {
                    OFFSET -4.1246 0.487 4.1451
                    CHANNELS 3 Zrotation Xrotation Yrotation
                    JOINT rIndex2
                    {
                      OFFSET -3.4052 -1.454 2.7682
                      CHANNELS 3 Zrotation Xrotation Yrotation
                      JOINT rIndex2_End
                      {
                        OFFSET -1.4531 -1.795 1.2713
                        CHANNELS 3 Zrotation Xrotation Yrotation
                        End Site
                        {
                          OFFSET -0.0145 -0.018 0.0127
                        }
                      }
                    }
                  }
                  JOINT rMid1
                  {
                    OFFSET -5.6954 0.21 2.1184
                    CHANNELS 3 Zrotation Xrotation Yrotation
                    JOINT rMid2
                    {
                      OFFSET -3.9766 -1.54 2.3863
                      CHANNELS 3 Zrotation Xrotation Yrotation
                      JOINT rMid2_End
                      {
                        OFFSET -1.4042 -1.926 1.125
                        CHANNELS 3 Zrotation Xrotation Yrotation
                        End Site
                        {
                          OFFSET -0.014 -0.0193 0.0113
                        }
                      }
                    }
                  }
                }
                JOINT rCarpal2
                {
                  OFFSET -2.0956 0.66 -0.3894
                  CHANNELS 3 Zrotation Xrotation Yrotation
                  JOINT rRing1
                  {
                    OFFSET -5.0395 -0.09 2.4971
                    CHANNELS 3 Zrotation Xrotation Yrotation
                    JOINT rRing2
                    {
                      OFFSET -3.7921 -1.552 1.4806
                      CHANNELS 3 Zrotation Xrotation Yrotation
                      JOINT rRing2_End
                      {
                        OFFSET -1.4655 -1.808 0.9609
                        CHANNELS 3 Zrotation Xrotation Yrotation
                        End Site
                        {
                          OFFSET -0.0147 -0.0181 0.0096
                        }
                      }
                    }
                  }
                  JOINT rPinky1
                  {
                    OFFSET -4.9141 -1.269 0.3592
                    CHANNELS 3 Zrotation Xrotation Yrotation
                    JOINT rPinky2
                    {
                      OFFSET -3.1477 -1.685 0.8462
                      CHANNELS 3 Zrotation Xrotation Yrotation
                      JOINT rPinky2_End
                      {
                        OFFSET -0.8055 -1.585 0.7955
                        CHANNELS 3 Zrotation Xrotation Yrotation
                        End Site
                        {
                          OFFSET -0.0081 -0.0158 0.008
                        }
                      }
                    }
                  }
                }
              }
            }
          }
        }
      }
    }
  }
  JOINT lThigh
  {
    OFFSET 8.367 -8.2066 0.5982
    CHANNELS 3 Zrotation Xrotation Yrotation
    JOINT lShin
    {
      OFFSET 2.1923 -43.463 -0.4932
      CHANNELS 3 Zrotation Xrotation Yrotation
      JOINT lFoot
      {
        OFFSET 0.7333 -45.8593 -2.6451
        CHANNELS 3 Zrotation Xrotation Yrotation
        End Site
        {
          OFFSET 2.6618 -4.2699 12.3931
        }
      }
    }
  }
  JOINT rThigh
  {
    OFFSET -8.367 -8.2066 0.5982
    CHANNELS 3 Zrotation Xrotation Yrotation
    JOINT rShin
    {
      OFFSET -2.1923 -43.463 -0.4931
      CHANNELS 3 Zrotation Xrotation Yrotation
      JOINT rFoot
      {
        OFFSET -0.7333 -45.8593 -2.6451
        CHANNELS 3 Zrotation Xrotation Yrotation
        End Site
        {
          OFFSET -2.6618 -4.2699 12.3931
        }
      }
    }
  }
}
MOTION
Frames:	4
Frame Time:	0.0333333
0 91.7903 2.51682 0 0 -0 0 0 -0 0 0 -0 0 0 -0 0 0 -0 0 0 -0 0 0 -0 1.66051 0.0835086 5.75766 -0.0175111 0.895433 15.7816 7.95139e-016 -1.98785e-016 -0 5.46658e-016 -3.97569e-016 -0 5.96354e-016 0 -0 3.97569e-016 1.98785e-016 9.54166e-015 1.49089e-016 -3.97569e-016 -0 6.4605e-016 0 3.18055e-015 5.96354e-016 0 3.18055e-015 8.94531e-016 -1.98785e-016 6.36111e-015 6.4605e-016 0 3.18055e-015 5.96354e-016 0 3.18055e-015 8.94531e-016 -1.98785e-016 6.36111e-015 1.49089e-016 -3.97569e-016 -0 6.4605e-016 0 3.18055e-015 5.96354e-016 0 3.18055e-015 8.94531e-016 -1.98785e-016 6.36111e-015 6.4605e-016 0 3.18055e-015 5.96354e-016 0 3.18055e-015 8.94531e-016 -1.98785e-016 6.36111e-015 0 0 -0 -1.4496 0.0636048 -5.0245 -1.74811 1.20616 -16.8394 -1.19271e-015 1.98785e-016 -3.18055e-015 -3.97569e-016 1.98785e-016 -3.18055e-015 -2.98177e-016 1.98785e-016 -3.18055e-015 -2.98177e-016 3.97569e-016 -0 4.96962e-016 0 -6.36111e-015 -9.93923e-017 3.97569e-016 -0 -8.94531e-016 5.96354e-016 -0 -3.97569e-016 3.97569e-016 -0 -9.93923e-017 3.97569e-016 -0 -8.94531e-016 5.96354e-016 -0 -3.97569e-016 3.97569e-016 -0 4.96962e-016 0 -6.36111e-015 -9.93923e-017 3.97569e-016 -0 -8.94531e-016 5.96354e-016 -0 -3.97569e-016 3.97569e-016 -0 -9.93923e-017 3.97569e-016 -0 -8.94531e-016 5.96354e-016 -0 -3.97569e-016 3.97569e-016 -0 -4.66111 -0.998717 0.12318 0.00986924 1.54847 0.176523 4.65186 -0.572283 -0.254274 4.66111 -0.998765 -0.123176 -0.00986867 1.54869 -0.176537 -4.65186 -0.572453 0.25427 
-7.22296 50.5557 -11.3722 -0 -43.7892 -0 -2.62308 6.04183 -1.84798 -5.09097 12.1595 -3.44345 -5.09097 12.1595 -3.44344 2.13191 -8.16955 -7.42371 4.41008 -0.63782 14.3811 -1.55265 1.98914 -17.5738 -24.8554 -37.5353 -3.02941 -22.456 41.474 -6.92168 22.1184 -9.59855 -6.95159 -1.3762e-006 -8.50327e-007 3.63515e-007 1.3762e-006 8.50327e-007 -3.63515e-007 -2.75239e-006 -1.70065e-006 7.27031e-007 -7.95139e-016 2.38542e-015 3.18055e-015 -1.3762e-006 -8.50327e-007 3.63515e-007 1.3762e-006 8.50327e-007 -3.63515e-007 -2.75239e-006 -1.70065e-006 7.27031e-007 -1.3762e-006 -8.50327e-007 3.63515e-007 1.3762e-006 8.50327e-007 -3.63515e-007 -2.75239e-006 -1.70065e-006 7.27031e-007 -7.95139e-016 2.38542e-015 3.18055e-015 -1.3762e-006 -8.50327e-007 3.63515e-007 1.3762e-006 8.50327e-007 -3.63515e-007 -2.75239e-006 -1.70065e-006 7.27031e-007 -1.3762e-006 -8.50327e-007 3.63515e-007 1.3762e-006 8.50327e-007 -3.63515e-007 -2.75239e-006 -1.70065e-006 7.27031e-007 14.8494 -18.2213 -14.8203 16.1682 26.2504 -12.4461 -40.8853 -3.40448 3.60521 -3.04362 3.93808 5.5369 8.33272e-007 1.52139e-007 3.49637e-008 5.1684e-015 7.95139e-016 3.18055e-015 8.33272e-007 1.52139e-007 3.49637e-008 7.95139e-016 1.59028e-015 -0 8.33272e-007 1.52139e-007 3.49637e-008 1.19271e-015 0 3.18055e-015 8.33272e-007 1.52139e-007 3.49637e-008 8.33272e-007 1.52139e-007 3.49637e-008 1.19271e-015 0 3.18055e-015 8.33272e-007 1.52139e-007 3.49637e-008 7.95139e-016 1.59028e-015 -0 8.33272e-007 1.52139e-007 3.49637e-008 1.19271e-015 0 3.18055e-015 8.33272e-007 1.52139e-007 3.49637e-008 8.33272e-007 1.52139e-007 3.49637e-008 1.19271e-015 0 3.18055e-015 8.33272e-007 1.52139e-007 3.49637e-008 -7.29521 -32.422 11.6605 3.96703 36.7019 -3.37702 5.55531 13.0617 -7.35718 -26.4208 -20.7958 -28.9285 -5.12127 48.6804 3.04106 -24.9743 15.1503 34.3519 
-14.3493 8.87512 -20.0482 -0 -82.5084 -0 -4.82171 11.0664 -4.08175 -9.07874 22.4187 -7.39798 -9.07874 22.4187 -7.39798 2.21223 -15.032 -14.3493 8.56292 -1.19113 27.1138 -1.95666 3.27134 -33.1552 -73.0355 -67.0437 -30.8764 -2.61072 57.5013 -58.6179 42.3523 -16.8281 -10.4834 -3.26501e-006 2.18162e-006 1.35903e-006 -5.17373e-006 2.91013e-006 1.06762e-006 -3.63157e-006 1.11582e-006 1.31861e-007 -1.39149e-015 3.97569e-016 3.18055e-015 -3.26501e-006 2.18162e-006 1.35903e-006 -5.17373e-006 2.91013e-006 1.06762e-006 -3.63157e-006 1.11582e-006 1.31861e-007 -3.26501e-006 2.18162e-006 1.35903e-006 -5.17373e-006 2.91013e-006 1.06762e-006 -3.63157e-006 1.11582e-006 1.31861e-007 -1.39149e-015 3.97569e-016 3.18055e-015 -3.26501e-006 2.18162e-006 1.35903e-006 -5.17373e-006 2.91013e-006 1.06762e-006 -3.63157e-006 1.11582e-006 1.31861e-007 -3.26501e-006 2.18162e-006 1.35903e-006 -5.17373e-006 2.91013e-006 1.06762e-006 -3.63157e-006 1.11582e-006 1.31861e-007 19.2805 -31.2556 -31.4569 40.2165 48.0767 -24.1463 -75.1882 -6.18984 20.2732 -6.41709 7.01322 10.5584 3.18055e-015 -7.95139e-016 -7.95139e-016 -8.18875e-007 -4.7994e-007 -7.56761e-008 5.36719e-015 1.59028e-015 1.59028e-015 3.18055e-015 -7.95139e-016 -7.95139e-016 -5.96354e-016 -7.95139e-016 4.77083e-015 -8.18875e-007 -4.7994e-007 -7.56761e-008 1.78906e-015 7.95139e-016 -0 -5.96354e-016 -7.95139e-016 4.77083e-015 -8.18875e-007 -4.7994e-007 -7.56761e-008 1.78906e-015 7.95139e-016 -0 3.18055e-015 -7.95139e-016 -7.95139e-016 -5.96354e-016 -7.95139e-016 4.77083e-015 -8.18875e-007 -4.7994e-007 -7.56761e-008 1.78906e-015 7.95139e-016 -0 -5.96354e-016 -7.95139e-016 4.77083e-015 -8.18875e-007 -4.7994e-007 -7.56761e-008 1.78906e-015 7.95139e-016 -0 7.8123 -57.2023 34.1882 21.5206 66.4778 -19.4226 8.38432 25.2872 -12.472 -68.1291 -28.9265 -62.1635 -104.55 82.6269 99.2851 -52.9409 19.2018 64.9099 
-17.1668 -6.87037 -21.7806 -180 -83.383 -180 -5.55493 12.827 -5.06031 -10.3075 26.0523 -9.15239 -10.3075 26.0523 -9.15238 1.80869 -17.2397 -17.0206 10.1571 -1.80175 31.83 -1.89749 3.4512 -38.8485 -112.605 -72.7403 -62.0961 7.65127 53.6794 -78.8291 49.9842 -18.9894 -11.2137 7.95139e-016 3.18055e-015 -0 3.6353e-006 -5.44363e-007 -2.28202e-007 6.18274e-007 -8.02243e-007 -2.26347e-008 0 4.77083e-015 -0 -0 0 9.54166e-015 3.6353e-006 -5.44363e-007 -2.28202e-007 6.18274e-007 -8.02243e-007 -2.26347e-008 -0 0 9.54166e-015 3.6353e-006 -5.44363e-007 -2.28202e-007 6.18274e-007 -8.02243e-007 -2.26347e-008 0 4.77083e-015 -0 -0 0 9.54166e-015 3.6353e-006 -5.44363e-007 -2.28202e-007 6.18274e-007 -8.02243e-007 -2.26347e-008 -0 0 9.54166e-015 3.6353e-006 -5.44363e-007 -2.28202e-007 6.18274e-007 -8.02243e-007 -2.26347e-008 18.6926 -34.592 -38.763 52.9119 55.1649 -31.7144 -87.6297 -6.74218 26.197 -7.81402 7.95629 12.3764 2.01891e-016 9.93923e-017 9.93923e-017 -1.38683e-015 0 -1.98785e-016 1.79527e-015 1.98785e-016 9.93923e-017 2.03444e-016 9.93923e-017 -0 -1.48001e-015 -2.98177e-016 6.36111e-015 1.69899e-015 0 1.98785e-016 1.11816e-016 2.98177e-016 -2.98177e-016 -1.48001e-015 -2.98177e-016 6.36111e-015 1.69899e-015 0 1.98785e-016 1.11816e-016 2.98177e-016 -2.98177e-016 2.03444e-016 9.93923e-017 -0 -1.48001e-015 -2.98177e-016 6.36111e-015 1.69899e-015 0 1.98785e-016 1.11816e-016 2.98177e-016 -2.98177e-016 -1.48001e-015 -2.98177e-016 6.36111e-015 1.69899e-015 0 1.98785e-016 1.11816e-016 2.98177e-016 -2.98177e-016 23.1621 -63.5762 51.3037 43.9944 75.1651 -40.3702 10.159 29.9362 -15.068 -85.6982 -27.9373 -75.9363 -156.867 70.2916 148.964 -63.4553 17.4523 75.6535 
